<?xml version="1.0" encoding="UTF-8"?>
<svg xmlns="http://www.w3.org/2000/svg" xmlns:xlink="http://www.w3.org/1999/xlink" viewBox="0 0 2892.94 445.75">
  <defs>
    <style>
      .cls-1, .cls-2, .cls-3, .cls-4, .cls-5, .cls-6, .cls-7, .cls-8, .cls-9, .cls-10, .cls-11, .cls-12, .cls-13, .cls-14, .cls-15, .cls-16, .cls-17, .cls-18, .cls-19, .cls-20 {
        stroke-miterlimit: 10;
      }

      .cls-1, .cls-2, .cls-4, .cls-5, .cls-6, .cls-7, .cls-8, .cls-10, .cls-11, .cls-12, .cls-13, .cls-15, .cls-16, .cls-19 {
        stroke-width: 6px;
      }

      .cls-1, .cls-2, .cls-9, .cls-20 {
        stroke: #adadad;
      }

      .cls-1, .cls-3, .cls-21, .cls-9, .cls-13, .cls-14, .cls-16, .cls-17, .cls-18, .cls-20 {
        fill: none;
      }

      .cls-2 {
        fill: #dadada;
      }

      .cls-3, .cls-5, .cls-6, .cls-7, .cls-8, .cls-12, .cls-13, .cls-15, .cls-17 {
        stroke: #000;
      }

      .cls-3, .cls-18, .cls-20 {
        stroke-width: 12px;
      }

      .cls-4 {
        fill: #424242;
      }

      .cls-4, .cls-14, .cls-16, .cls-18 {
        stroke: #333;
      }

      .cls-5 {
        fill: url(#Degradado_sin_nombre_4);
      }

      .cls-6 {
        fill: url(#Degradado_h-4);
      }

      .cls-7 {
        fill: #7a4f9e;
      }

      .cls-8 {
        fill: url(#Degradado_h-3);
      }

      .cls-9, .cls-14, .cls-17 {
        stroke-width: 3px;
      }

      .cls-10 {
        fill: #adadad;
        stroke: #979797;
      }

      .cls-11 {
        stroke: url(#Degradado_h);
      }

      .cls-15 {
        fill: url(#Degradado_h-2);
      }

      .cls-19 {
        fill: #6b6b6b;
        stroke: #424242;
      }
    </style>
    <linearGradient id="Degradado_h" data-name="Degradado h" x1="765.62" y1="275.38" x2="849.48" y2="275.38" gradientUnits="userSpaceOnUse">
      <stop offset="0" stop-color="#4a6fa5"/>
      <stop offset=".28" stop-color="#5269a3"/>
      <stop offset=".73" stop-color="#695aa0"/>
      <stop offset="1" stop-color="#7a4f9e"/>
    </linearGradient>
    <linearGradient id="Degradado_h-2" data-name="Degradado h" x1="696.57" y1="187.48" x2="926.38" y2="187.48" xlink:href="#Degradado_h"/>
    <linearGradient id="Degradado_h-3" data-name="Degradado h" x1="141.01" y1="186.2" x2="334.31" y2="186.2" gradientTransform="translate(186.67 -111.38) rotate(42.2)" xlink:href="#Degradado_h"/>
    <linearGradient id="Degradado_h-4" data-name="Degradado h" x1="78.64" y1="191.2" x2="308.44" y2="191.2" xlink:href="#Degradado_h"/>
    <linearGradient id="Degradado_sin_nombre_4" data-name="Degradado sin nombre 4" x1="87.07" y1="235.11" x2="280.36" y2="235.11" gradientTransform="translate(205.55 -62.47) rotate(42.2)" gradientUnits="userSpaceOnUse">
      <stop offset="0" stop-color="#4a6fa5"/>
      <stop offset=".28" stop-color="#5269a3"/>
      <stop offset=".73" stop-color="#695aa0"/>
      <stop offset="1" stop-color="#7a4f9e"/>
    </linearGradient>
  </defs>
  <g id="Logotipo_05:_600_x_600_px" data-name="Logotipo 05: 600 x 600 px">
    <g>
      <g id="HR">
        <rect class="cls-10" x="2710.27" y="69.51" width="20.74" height="264.89" transform="translate(569.5 1879.83) rotate(-42.2)"/>
        <g id="R">
          <path class="cls-10" d="M2693.99,185.8c-21.95,59.79-43.91,119.58-65.86,179.38,4.98,5.82,9.96,11.64,14.95,17.45,21.19-60.23,42.38-120.45,63.57-180.68"/>
          <path class="cls-2" d="M2765.82,120.67l-72.92,66.12c26.2,32.95,69.73,32.55,86.8,13.81,15.61-17.14,14.04-55.06-13.88-79.92ZM2760.51,184c-10.78,10.22-36.43,8.91-50.96-11.26l42.87-39.93c18.94,15.69,18.78,41.05,8.09,51.19Z"/>
          <path class="cls-2" d="M2555.65,283.23l13.93,15.37c41.47-37.6,82.94-75.2,124.4-112.8,23.94-21.71,47.89-43.42,71.83-65.13-4.64-5.12-9.29-10.24-13.93-15.36l-196.23,177.93Z"/>
        </g>
        <rect class="cls-10" x="2650.36" y="113.42" width="20.74" height="264.89" transform="translate(524.48 1850.97) rotate(-42.2)"/>
      </g>
      <g id="Exterior">
        <g id="Circulitos_Fusion" data-name="Circulitos Fusion">
          <g>
            <path class="cls-21" d="M2659.45,37.93c.93-13.79,12.41-24.68,26.44-24.68s26.5,11.86,26.5,26.5-11.86,26.5-26.5,26.5-26.5-11.86-26.5-26.5c0-.61.02-1.22.06-1.82"/>
            <path class="cls-9" d="M2666.05,38.84c.47-10.55,9.17-18.97,19.84-18.97s19.88,8.9,19.88,19.88-8.9,19.88-19.88,19.88-19.63-8.66-19.86-19.42c-.01-.46,0-.91.02-1.36"/>
            <circle class="cls-1" cx="2685.89" cy="39.75" r="13.25"/>
          </g>
          <g>
            <path class="cls-21" d="M2486.25,337.93c.93-13.79,12.41-24.68,26.44-24.68s26.5,11.86,26.5,26.5-11.86,26.5-26.5,26.5-26.5-11.86-26.5-26.5c0-.61.02-1.22.06-1.82"/>
            <path class="cls-9" d="M2492.84,338.84c.47-10.55,9.17-18.97,19.84-18.97s19.88,8.9,19.88,19.88-8.9,19.88-19.88,19.88-19.63-8.66-19.86-19.42c-.01-.46,0-.91.02-1.36"/>
            <circle class="cls-1" cx="2512.69" cy="339.75" r="13.25"/>
          </g>
          <g>
            <path class="cls-21" d="M2833.53,337.93c.93-13.79,12.41-24.68,26.44-24.68s26.5,11.86,26.5,26.5-11.86,26.5-26.5,26.5-26.5-11.86-26.5-26.5c0-.61.02-1.22.06-1.82"/>
            <path class="cls-9" d="M2840.13,338.84c.47-10.55,9.17-18.97,19.84-18.97s19.88,8.9,19.88,19.88-8.9,19.88-19.88,19.88-19.63-8.66-19.86-19.42c-.01-.46,0-.91.02-1.36"/>
            <circle class="cls-1" cx="2859.97" cy="339.75" r="13.25"/>
          </g>
        </g>
      </g>
      <g id="Circulo_Padre" data-name="Circulo Padre">
        <path class="cls-20" d="M2868.94,322.42c11.56-25.33,18.01-53.48,18.01-83.14,0-104.15-79.43-189.75-181.02-199.53"/>
        <path class="cls-20" d="M2523.83,356.48c36.41,50.44,95.69,83.27,162.64,83.27s125.77-32.58,162.21-82.68"/>
        <path class="cls-20" d="M2665.8,39.86c-101.01,10.35-179.8,95.68-179.8,199.42,0,29.47,6.36,57.46,17.78,82.66"/>
      </g>
    </g>
  </g>
  <g id="Logotipo_04:_600_x_600_px" data-name="Logotipo 04: 600 x 600 px">
    <g>
      <g id="HR-2" data-name="HR">
        <rect class="cls-4" x="2089.69" y="56.42" width="20.74" height="264.89" transform="translate(417.45 1459.59) rotate(-42.2)"/>
        <g id="R-2" data-name="R">
          <path class="cls-4" d="M2073.41,172.71c-21.95,59.79-43.91,119.58-65.86,179.38,4.98,5.82,9.96,11.64,14.95,17.45,21.19-60.23,42.38-120.45,63.57-180.68"/>
          <path class="cls-19" d="M2089.21,158.89l42.79-38.63,4.16,4.16c14.8,16.39,13.76,38.55,3.87,47.65-10.93,10.07-36.81,7.98-50.82-13.18-1.17,1.07-2.33,2.15-3.5,3.22-3.8,3.5-7.59,7-11.39,10.5,23.61,26.04,59.08,32.35,79.21,14.1,18.57-16.84,17.6-48.7-1.19-73.98-.71-.95-1.44-1.9-2.2-2.83-5.58-6.36-11.17-12.71-16.75-19.07l-72.92,66.12-46.3,41.98-77.01,69.83,13.93,15.37c25.13-22.78,50.25-45.56,75.38-68.34,3.16-2.86,62.75-56.89,62.75-56.89"/>
        </g>
        <rect class="cls-4" x="2029.78" y="100.33" width="20.74" height="264.89" transform="translate(372.43 1430.72) rotate(-42.2)"/>
      </g>
      <g id="Exterior-2" data-name="Exterior">
        <g id="Circulitos_Fusion-2" data-name="Circulitos Fusion">
          <g>
            <path class="cls-21" d="M2038.87,24.84c.93-13.79,12.41-24.68,26.44-24.68s26.5,11.86,26.5,26.5-11.86,26.5-26.5,26.5-26.5-11.86-26.5-26.5c0-.61.02-1.22.06-1.82"/>
            <path class="cls-14" d="M2045.47,25.75c.47-10.55,9.17-18.97,19.84-18.97s19.88,8.9,19.88,19.88-8.9,19.88-19.88,19.88-19.63-8.66-19.86-19.42c-.01-.46,0-.91.02-1.36"/>
            <circle class="cls-16" cx="2065.31" cy="26.66" r="13.25"/>
          </g>
          <g>
            <path class="cls-21" d="M1865.67,324.84c.93-13.79,12.41-24.68,26.44-24.68s26.5,11.86,26.5,26.5-11.86,26.5-26.5,26.5-26.5-11.86-26.5-26.5c0-.61.02-1.22.06-1.82"/>
            <path class="cls-14" d="M1872.26,325.75c.47-10.55,9.17-18.97,19.84-18.97s19.88,8.9,19.88,19.88-8.9,19.88-19.88,19.88-19.63-8.66-19.86-19.42c-.01-.46,0-.91.02-1.36"/>
            <circle class="cls-16" cx="1892.11" cy="326.66" r="13.25"/>
          </g>
          <g>
            <path class="cls-21" d="M2212.95,324.84c.93-13.79,12.41-24.68,26.44-24.68s26.5,11.86,26.5,26.5-11.86,26.5-26.5,26.5-26.5-11.86-26.5-26.5c0-.61.02-1.22.06-1.82"/>
            <path class="cls-14" d="M2219.55,325.75c.47-10.55,9.17-18.97,19.84-18.97s19.88,8.9,19.88,19.88-8.9,19.88-19.88,19.88-19.63-8.66-19.86-19.42c-.01-.46,0-.91.02-1.36"/>
            <circle class="cls-16" cx="2239.39" cy="326.66" r="13.25"/>
          </g>
        </g>
      </g>
      <g id="Circulo_Padre-2" data-name="Circulo Padre">
        <path class="cls-18" d="M2248.36,309.32c11.56-25.33,18.01-53.48,18.01-83.14,0-104.15-79.43-189.75-181.02-199.53"/>
        <path class="cls-18" d="M1903.25,343.39c36.41,50.44,95.69,83.27,162.64,83.27s125.77-32.58,162.21-82.68"/>
        <path class="cls-18" d="M2045.22,26.77c-101.01,10.35-179.8,95.68-179.8,199.42,0,29.47,6.36,57.46,17.78,82.66"/>
      </g>
    </g>
  </g>
  <g id="Logotipo_02:_600_x_600_px" data-name="Logotipo 02: 600 x 600 px">
    <g>
      <g id="HR-3" data-name="HR">
        <rect class="cls-12" x="850.27" y="56.26" width="20.74" height="264.89" transform="translate(96.31 627.01) rotate(-42.2)"/>
        <g id="R-3" data-name="R">
          <path class="cls-11" d="M833.25,177.72c-21.4,57.66-42.8,115.32-64.21,172.99,4.98,5.82,9.96,11.64,14.95,17.45,20.89-59.82,41.77-119.64,62.66-179.46"/>
          <path class="cls-15" d="M848.62,158.89l42.79-38.63,4.16,4.16c14.8,16.39,13.76,38.55,3.87,47.65-10.93,10.07-36.81,7.98-50.82-13.18-1.17,1.07-2.33,2.15-3.5,3.22-3.8,3.5-7.59,7-11.39,10.5,23.61,26.04,59.08,32.35,79.21,14.1,18.57-16.84,17.6-48.7-1.19-73.98-.71-.95-1.44-1.9-2.2-2.83-5.58-6.36-11.17-12.71-16.75-19.07l-72.92,66.12-46.3,41.98-77.01,69.83,13.93,15.37c25.13-22.78,50.25-45.56,75.38-68.34,3.16-2.86,62.75-56.89,62.75-56.89"/>
        </g>
        <rect class="cls-12" x="790.36" y="100.17" width="20.74" height="264.89" transform="translate(51.29 598.15) rotate(-42.2)"/>
      </g>
      <g id="Exterior-3" data-name="Exterior">
        <g id="Circulitos_Fusion-3" data-name="Circulitos Fusion">
          <g>
            <path class="cls-21" d="M799.45,24.68C800.39,10.9,811.87,0,825.89,0s26.5,11.86,26.5,26.5-11.86,26.5-26.5,26.5-26.5-11.86-26.5-26.5c0-.61.02-1.22.06-1.82"/>
            <path class="cls-17" d="M806.05,25.59c.47-10.55,9.17-18.97,19.84-18.97s19.88,8.9,19.88,19.88-8.9,19.88-19.88,19.88-19.63-8.66-19.86-19.42c-.01-.46,0-.91.02-1.36"/>
            <circle class="cls-13" cx="825.89" cy="26.5" r="13.25"/>
          </g>
          <g>
            <path class="cls-21" d="M626.25,324.68c.93-13.79,12.41-24.68,26.44-24.68s26.5,11.86,26.5,26.5-11.86,26.5-26.5,26.5-26.5-11.86-26.5-26.5c0-.61.02-1.22.06-1.82"/>
            <path class="cls-17" d="M632.84,325.59c.47-10.55,9.17-18.97,19.84-18.97s19.88,8.9,19.88,19.88-8.9,19.88-19.88,19.88-19.63-8.66-19.86-19.42c-.01-.46,0-.91.02-1.36"/>
            <circle class="cls-13" cx="652.69" cy="326.5" r="13.25"/>
          </g>
          <g>
            <path class="cls-21" d="M973.53,324.68c.93-13.79,12.41-24.68,26.44-24.68s26.5,11.86,26.5,26.5-11.86,26.5-26.5,26.5-26.5-11.86-26.5-26.5c0-.61.02-1.22.06-1.82"/>
            <path class="cls-17" d="M980.13,325.59c.47-10.55,9.17-18.97,19.84-18.97s19.88,8.9,19.88,19.88-8.9,19.88-19.88,19.88-19.63-8.66-19.86-19.42c-.01-.46,0-.91.02-1.36"/>
            <circle class="cls-13" cx="999.97" cy="326.5" r="13.25"/>
          </g>
        </g>
      </g>
      <g id="Circulo_Padre-3" data-name="Circulo Padre">
        <path class="cls-3" d="M1008.94,309.17c11.56-25.33,18.01-53.48,18.01-83.14,0-104.15-79.43-189.75-181.02-199.53"/>
        <path class="cls-3" d="M663.83,343.23c36.41,50.44,95.69,83.27,162.64,83.27s125.77-32.58,162.21-82.68"/>
        <path class="cls-3" d="M805.8,26.61c-101.01,10.35-179.8,95.68-179.8,199.42,0,29.47,6.36,57.46,17.78,82.66"/>
      </g>
    </g>
    <line class="cls-12" x1="862.86" y1="206.58" x2="831.03" y2="171.28"/>
  </g>
  <g id="Logotipo_01:_600_x_600_px" data-name="Logotipo 01: 600 x 600 px">
    <g>
      <g id="HR-4" data-name="HR">
        <rect class="cls-8" x="227.29" y="53.76" width="20.74" height="264.89" transform="translate(-63.48 207.9) rotate(-42.2)"/>
        <g id="R-4" data-name="R">
          <path class="cls-7" d="M216.97,175.05c-21.95,59.79-43.91,119.58-65.86,179.38,4.98,5.82,9.96,11.64,14.95,17.45,21.19-60.23,42.38-120.45,63.57-180.68"/>
          <path class="cls-6" d="M230.69,162.61l42.79-38.63,4.16,4.16c14.8,16.39,13.76,38.55,3.87,47.65-10.93,10.07-36.81,7.98-50.82-13.18-1.17,1.07-2.33,2.15-3.5,3.22-3.8,3.5-7.59,7-11.39,10.5,23.61,26.04,59.08,32.35,79.21,14.1,18.57-16.84,17.6-48.7-1.19-73.98-.71-.95-1.44-1.9-2.2-2.83-5.58-6.36-11.17-12.71-16.75-19.07l-72.92,66.12-46.3,41.98-77.01,69.83,13.93,15.37c25.13-22.78,50.25-45.56,75.38-68.34,3.16-2.86,62.75-56.89,62.75-56.89"/>
        </g>
        <rect class="cls-5" x="173.35" y="102.67" width="20.74" height="264.89" transform="translate(-110.31 184.34) rotate(-42.2)"/>
      </g>
      <g id="Exterior-4" data-name="Exterior">
        <g id="Circulitos_Fusion-4" data-name="Circulitos Fusion">
          <g>
            <path class="cls-21" d="M179.45,24.68c.93-13.79,12.41-24.68,26.44-24.68s26.5,11.86,26.5,26.5-11.86,26.5-26.5,26.5-26.5-11.86-26.5-26.5c0-.61.02-1.22.06-1.82"/>
            <path class="cls-17" d="M186.05,25.59c.47-10.55,9.17-18.97,19.84-18.97s19.88,8.9,19.88,19.88-8.9,19.88-19.88,19.88-19.63-8.66-19.86-19.42c-.01-.46,0-.91.02-1.36"/>
            <circle class="cls-13" cx="205.89" cy="26.5" r="13.25"/>
          </g>
          <g>
            <path class="cls-21" d="M6.25,324.68c.93-13.79,12.41-24.68,26.44-24.68s26.5,11.86,26.5,26.5-11.86,26.5-26.5,26.5-26.5-11.86-26.5-26.5c0-.61.02-1.22.06-1.82"/>
            <path class="cls-17" d="M12.84,325.59c.47-10.55,9.17-18.97,19.84-18.97s19.88,8.9,19.88,19.88-8.9,19.88-19.88,19.88-19.63-8.66-19.86-19.42c-.01-.46,0-.91.02-1.36"/>
            <circle class="cls-13" cx="32.69" cy="326.5" r="13.25"/>
          </g>
          <g>
            <path class="cls-21" d="M353.53,324.68c.93-13.79,12.41-24.68,26.44-24.68s26.5,11.86,26.5,26.5-11.86,26.5-26.5,26.5-26.5-11.86-26.5-26.5c0-.61.02-1.22.06-1.82"/>
            <path class="cls-17" d="M360.13,325.59c.47-10.55,9.17-18.97,19.84-18.97s19.88,8.9,19.88,19.88-8.9,19.88-19.88,19.88-19.63-8.66-19.86-19.42c-.01-.46,0-.91.02-1.36"/>
            <circle class="cls-13" cx="379.97" cy="326.5" r="13.25"/>
          </g>
        </g>
        <g id="Circulo_Padre-4" data-name="Circulo Padre">
          <path class="cls-3" d="M388.94,309.17c11.56-25.33,18.01-53.48,18.01-83.14,0-104.15-79.43-189.75-181.02-199.53"/>
          <path class="cls-3" d="M43.83,343.23c36.41,50.44,95.69,83.27,162.64,83.27s125.77-32.58,162.21-82.68"/>
          <path class="cls-3" d="M185.8,26.61C84.8,36.96,6,122.29,6,226.03c0,29.47,6.36,57.46,17.78,82.66"/>
        </g>
      </g>
    </g>
  </g>
</svg>