<svg xmlns="http://www.w3.org/2000/svg" width="874" height="254" viewBox="0 0 874 254" fill="#ffffff">
  <g clip-path="url(#clip0_108_192)">
    <path fill-rule="evenodd" clip-rule="evenodd" d="M229 19V23C230.924 21.4234 232.728 19.9696 235.005 18.9151C236.267 18.3307 237.629 17.7967 238.999 17.5301C254.45 14.5247 243.195 36.2326 240 42L245 41C244.319 49.33 240.757 55.104 235 61L240 60C237.739 67.8347 232.645 73.3389 227 79L233 78C230.182 83.9227 225.828 87.2763 221.315 90.7531C218.85 92.6523 216.337 94.5884 214 97L220 96C213.889 104.673 206.184 108.276 197.751 112.22C195.225 113.401 192.633 114.612 190 116C191.388 116.691 191.861 116.985 193 118C188.155 120.657 183.205 122.008 178.23 123.367C174.49 124.388 170.735 125.414 167 127C172.536 127.114 177.742 128.32 183.069 129.555C183.71 129.703 184.354 129.852 185 130C184.528 131.416 184.186 131.814 183 133C194.452 133.008 206.881 136.356 214 146H210C212.678 148.707 215.612 150.778 218.512 152.825C223.159 156.106 227.719 159.325 231 165H228C235.602 172.603 241.526 179.31 244 190H239C243.37 194.58 255.176 207.728 248 214C248.159 214.311 248.319 214.622 248.479 214.932C249.5 216.917 250.52 218.899 251.29 221.002C251.314 221.069 251.339 221.135 251.363 221.202C251.809 222.417 252.286 223.719 252.463 224.995C253.219 230.441 249.638 231.074 245 230.985C238.996 230.869 234.458 228.264 229.568 225.457C228.725 224.973 227.873 224.484 227 224L229 229C220.24 228.813 214.153 225.009 208 219L209 224C201.652 221.879 196.343 217.298 191 212L192 217C184.229 214.519 180.177 208.519 175.963 202.28C175 200.853 174.027 199.413 173 198V203C163.587 198.598 159.923 189.112 156.405 180.003C155.617 177.963 154.836 175.941 154 174L153 177C147.627 172.754 146.284 166.176 144.941 159.595C144.193 155.93 143.445 152.264 142 149C142 156.069 141.837 162.407 139 169C138.484 168.742 138.232 168.62 138.029 168.441C137.762 168.206 137.582 167.872 137 167C136.77 178.148 132.891 190.757 124 198L122 194C119.132 200.852 112.037 215.503 103 212C98.9 220.767 88.486 226.565 79 227V223C74.42 227.561 69.504 232.078 63 233.583C59.68 234.352 56.768 234.582 56 231C55.7256 231.181 55.4515 231.363 55.177 231.546C53.509 232.655 51.8283 233.773 49.995 234.588C48.728 235.151 47.387 235.629 46.001 235.785C30.792 237.506 41.563 216.82 46 211L41 212C41.074 203.762 44.525 198.003 50 192L45 193C47.979 185.848 51.837 179.795 58 175L52 176C56.016 166.869 63.812 162.012 72 157H66C71.9774 146.873 82.4221 143.019 92.7698 139.201C93.8493 138.803 94.9278 138.405 96 138L92 137C96.8102 131.389 103.61 130.181 110.462 128.963C114.414 128.261 118.384 127.556 122 126C114.613 125.683 106.83 124.939 100 122C100.258 121.484 100.38 121.232 100.559 121.029C100.794 120.762 101.128 120.582 102 120C90.828 119.769 78.074 116.16 71 107L75 105C66.305 101.792 59.791 96.1061 54 89C54.6357 85.6156 52.312 83.1012 50.0262 80.6277C49.2231 79.7588 48.4247 78.8948 47.761 78C44.173 73.1629 41.878 67.9481 41 62H45C44.6068 61.5152 44.2047 61.0257 43.7983 60.5309C40.255 56.2173 36.3839 51.5047 35.25 46C34.567 42.686 34.505 39.749 38 39C34.064 33.7338 32.14 28.5819 32 22C42.209 20.1059 49.6 23.339 58 29L56 24C64.682 24.0249 69.826 26.9707 76 33V28C83.213 31.019 88.505 35.5202 94 41L93 35C98.9934 37.8519 102.382 42.2491 105.9 46.8147C107.762 49.2307 109.66 51.6938 112 54V49C122.338 56.2874 126.147 66.2749 130.39 77.4014C130.592 77.9317 130.795 78.4647 131 79C131.564 77.2481 131.919 76.458 133 75C137.608 82.0527 140.268 90.6008 141 99H143C143.002 98.8606 143.003 98.7169 143.005 98.5694C143.052 94.2326 143.135 86.5874 148 86C148.822 75.593 151.71 61.0284 162 56L163 60C165.085 53.9858 168.418 48.5271 173.04 44.0941C175.838 41.4104 178.38 39.0993 182 41C187.776 32.8056 196.027 27.3495 206 26V30C212.825 24.0949 219.752 19.4226 229 19ZM78.2719 60.7251C74.2114 57.1063 70.1779 53.5115 67 49C89.575 59.5523 110.256 80.3224 126.271 99C127.105 99.9724 127.959 100.953 128.822 101.945C134.653 108.64 140.895 115.807 144 124C162.443 111.556 178.758 96.267 193.91 80C196.844 76.8502 199.71 73.4106 202.607 69.9327C208.631 62.7012 214.794 55.3039 222 50C219.573 58.2532 213.657 65.4183 208.17 72.0638C207.634 72.714 207.101 73.3592 206.576 74C194.782 88.395 181.29 102.152 167 114.08C166.154 114.786 165.304 115.509 164.447 116.236C159.1 120.779 153.503 125.535 147 128C158.986 149.529 179.781 168.345 197.907 184.746L198 184.83C200.333 186.941 202.753 189.006 205.182 191.08C210.72 195.806 216.304 200.571 221 206C211.895 203.377 204.288 197.013 197.097 190.997C196.73 190.69 196.365 190.384 196 190.08C183.067 179.285 171.224 167.593 160.05 155C159.265 154.116 158.452 153.215 157.625 152.3C151.913 145.977 145.522 138.901 143 131C124.028 143.905 106.866 160.448 91.039 177C88.3132 179.851 85.6509 182.847 82.9761 185.857C77.2855 192.261 71.5379 198.729 65 204C68.0476 194.435 75.8187 185.456 82.4843 177.754C82.997 177.162 83.5031 176.577 84 176L84.046 175.947C99.3482 158.183 117.413 137.213 139 127C135.554 119.758 129.9 113.577 124.434 107.601C123.33 106.395 122.234 105.197 121.166 104C109.098 90.4854 96.101 77.5669 83 65.0394C81.4529 63.5601 79.8603 62.1407 78.2719 60.7251Z" fill="#ffffff"/>
    <path fill-rule="evenodd" clip-rule="evenodd" d="M706.005 80.6684C694.614 83.957 699.954 100.52 710.995 97.332C722.472 94.0184 717.145 77.4521 706.005 80.6684ZM354.134 138.785C355.597 138.897 356.935 139 358 139C357.448 145.762 355.386 152.797 350.787 157.96C339.561 170.562 316.106 171.812 303.015 161.471C289.881 151.097 289.636 133.216 290.015 118C290.282 107.248 295.127 95.2221 304.004 88.7888C325.037 73.5445 355.841 85.5682 358 112C356.95 112 355.619 112.104 354.158 112.217C349.765 112.558 344.203 112.99 341.6 110.972C340.32 109.98 339.773 108.215 339.232 106.468C338.853 105.244 338.476 104.029 337.852 103.094C334.22 97.6576 327.147 96.0862 321 97.3443C315.238 98.5237 310.983 103.596 309.225 109C305.255 121.204 304.346 145.878 318.001 152.427C324.505 155.548 333.035 153.834 337.347 147.956C338.043 147.008 338.501 145.775 338.962 144.534C339.609 142.79 340.262 141.031 341.588 140.028C344.24 138.023 349.748 138.447 354.134 138.785ZM799 105V90.0002H816V105H827V117H816V141C816 141.615 815.976 142.272 815.95 142.952C815.839 145.965 815.71 149.434 817.603 151.682C819.623 154.08 822.921 154.042 825.858 154.008C826.246 154.003 826.628 153.999 827 154V167C822.997 167.743 819.083 168.159 815 167.96C797.677 167.117 798.346 148.278 798.847 134.194C798.926 131.983 799 129.889 799 128V117H790V105H799ZM384 105C384.052 107.528 384.278 109.582 385 112C388.66 104.336 395.385 104.001 403 104V121C396.849 119.859 389.485 119.528 386.028 126.043C384.55 128.827 384.735 132.63 384.901 136.043C384.951 137.078 385 138.076 385 139V167H368V105H384ZM415.38 158.96C401.137 141.953 407.469 108.907 431 104.468C441.744 102.441 453.499 105.188 460.471 114.015C473.952 131.082 467.501 163.748 444 167.674C433.929 169.357 422.157 167.053 415.38 158.96ZM474 147H490C491.14 152.597 495.111 155.941 501 155.913C504.479 155.896 510.658 153.629 509.539 149.039C508.432 144.506 502.13 143.052 497.737 142.039C497.113 141.895 496.527 141.76 496 141.626C484.845 138.793 472.554 131.558 476.649 118C483.589 95.0253 524.96 100.807 527 124H510C508.537 119.737 505.88 116.394 501 116.153C497.063 115.958 491.034 119.084 493.137 123.893C494.906 127.938 500.732 129.129 505.079 130.017C505.763 130.157 506.411 130.289 507 130.424C518.288 133.009 531.127 141.52 525.852 155C517.23 177.034 475.106 170.857 474 147ZM565 167.961C550.176 168.634 536.383 163.124 534 147C535.139 147 536.45 146.909 537.832 146.813C541.547 146.555 545.779 146.261 548.586 147.603C550.003 148.281 550.946 149.603 551.889 150.925C552.575 151.889 553.262 152.852 554.133 153.567C557.959 156.711 566.1 157.347 569.214 152.772C572.73 147.605 565.96 144.273 562 143.04C560.966 142.718 559.872 142.396 558.743 142.063C548.106 138.93 534.271 134.854 536.343 121C540.096 95.9118 585.843 98.7393 587 124C585.848 124 584.534 124.09 583.152 124.184C579.439 124.436 575.238 124.722 572.39 123.397C571.01 122.755 570.1 121.55 569.186 120.339C568.466 119.386 567.743 118.43 566.787 117.742C563.023 115.034 556.196 115.691 553.89 120.109C551.297 125.08 558.36 128.122 562 129.1C562.532 129.243 563.068 129.386 563.607 129.529C575.266 132.629 588.113 136.045 586.905 151C586.007 162.116 575.042 167.505 565 167.961ZM614 105V111C625.204 101.482 639.38 101.465 649 113C655.78 101.078 677.474 100.345 684 113.015C687.048 118.932 687.025 125.856 687.004 132.382C687.002 132.924 687 133.464 687 134V167H670C670 162.843 670.039 158.68 670.078 154.515C670.158 146.006 670.237 137.488 669.985 129C669.828 123.758 667.88 118.492 661.996 117.638C656.892 116.897 651.919 121.073 651.148 126.001C649.765 134.847 650.192 144.5 650.609 153.917C650.805 158.367 651 162.765 651 167H634C634 163.038 634.016 159.076 634.031 155.113C634.063 147.074 634.095 139.035 633.996 131C633.931 125.717 632.805 119.799 626.995 117.984C621.478 116.26 615.405 120.629 614.279 126.004C613.619 129.152 613.758 132.638 613.892 136.008C613.947 137.368 614 138.708 614 140V167H598V105H614ZM746 105V112C755.908 102.607 775.593 99.0536 781.602 115.001C784.046 121.488 784.025 128.307 784.004 135.113C784.002 135.742 784 136.371 784 137V167H767C767 162.857 767.106 158.664 767.213 154.456C767.438 145.603 767.664 136.681 766.906 128C766.466 122.965 763.469 118.026 758 117.449C753.381 116.962 748.445 120.567 747.318 125.004C746.538 128.071 746.709 131.633 746.871 135.025C746.936 136.392 747 137.732 747 139V167H730V105H746ZM700 167V105H717V167H700ZM439.999 154.452C421.459 158.488 419.267 121.695 435 117.587C440.867 116.055 446.318 119.697 448.517 125.004C452.198 133.886 451.526 151.943 439.999 154.452Z" fill="#ffffff"/>
  </g>
  <defs fill="#ffffff">
    <clipPath id="clip0_108_192" fill="#ffffff">
      <rect width="874" height="254" fill="#ffffff"/>
    </clipPath>
  </defs>
</svg>